<svg xmlns="http://www.w3.org/2000/svg" viewBox="0 0 38 38" width="38" height="38">
	<style>
		tspan { white-space:pre }
		.shp0 { opacity: 0.502;fill: #f5c506 } 
	</style>
	<g id="menu">
		<g id="logo">
			<g id="Group 1">
				<path id="Shape 8 copy 4" class="shp0" d="M0.04 10.47L8.99 10.14L8.93 1.31L12.76 4.91L12.82 13.74L3.86 14.08L0.04 10.47ZM5.84 15.94L14.8 15.61L14.74 6.77L18.56 10.38L18.62 19.21L9.67 19.54L5.84 15.94ZM28.65 37.43L28.59 28.6L37.55 28.27L33.73 24.66L24.77 25L24.83 33.83L28.65 37.43ZM22.85 31.96L22.79 23.13L31.75 22.8L27.92 19.19L18.96 19.53L19.02 28.36L22.85 31.96ZM27.82 0.89L28.16 9.71L37.13 9.66L33.47 13.42L24.51 13.48L24.17 4.66L27.82 0.89ZM22.27 6.61L22.61 15.43L31.58 15.37L27.92 19.14L18.96 19.2L18.62 10.38L22.27 6.61ZM0.46 29.08L9.42 29.02L9.76 37.85L13.42 34.08L13.08 25.25L4.12 25.31L0.46 29.08ZM6.01 23.36L14.97 23.3L15.31 32.13L18.97 28.36L18.63 19.54L9.67 19.6L6.01 23.36Z" />
			</g>
		</g>
	</g>
</svg>