<svg xmlns="http://www.w3.org/2000/svg" viewBox="0 0 41 41" width="41" height="41">
	<style>
		tspan { white-space:pre }
		.shp0 { fill: #f5c506 } 
	</style>
	<g id="menu">
		<g id="logo">
			<g id="Group 1">
				<path id="Shape 8 copy 3" class="shp0" d="M1 26.84L7.23 20.5L1 14.16L6.29 14.16L12.53 20.5L6.29 26.84L1 26.84ZM9.03 26.84L15.27 20.5L9.03 14.16L14.32 14.16L20.56 20.5L14.32 26.84L9.03 26.84ZM40.59 26.84L34.35 20.5L40.59 14.16L35.3 14.16L29.06 20.5L35.3 26.84L40.59 26.84ZM32.56 26.84L26.32 20.5L32.56 14.16L27.27 14.16L21.03 20.5L27.27 26.84L32.56 26.84ZM14.36 1L20.79 7.14L27.23 1L27.23 6.21L20.79 12.36L14.36 6.21L14.36 1ZM14.36 8.91L20.79 15.05L27.23 8.91L27.23 14.12L20.79 20.27L14.36 14.12L14.36 8.91ZM14.36 40L20.79 33.86L27.23 40L27.23 34.79L20.79 28.64L14.36 34.79L14.36 40ZM14.36 32.09L20.79 25.94L27.23 32.09L27.23 26.88L20.79 20.73L14.36 26.88L14.36 32.09Z" />
			</g>
		</g>
	</g>
</svg>