<svg xmlns="http://www.w3.org/2000/svg" viewBox="0 0 32 33" width="32" height="33">
	<style>
		tspan { white-space:pre }
		.shp0 { fill: #f5c506 } 
	</style>
	<g id="footer">
		<g id="logo_copy">
			<path id="Shape 8 copy 3" class="shp0" d="M1 21.54L5.85 16.5L1 11.46L5.11 11.46L9.96 16.5L5.11 21.54L1 21.54ZM7.24 21.54L12.09 16.5L7.24 11.46L11.36 11.46L16.21 16.5L11.36 21.54L7.24 21.54ZM31.78 21.54L26.93 16.5L31.78 11.46L27.67 11.46L22.82 16.5L27.67 21.54L31.78 21.54ZM25.54 21.54L20.69 16.5L25.54 11.46L21.42 11.46L16.57 16.5L21.42 21.54L25.54 21.54ZM11.38 1L16.39 5.88L21.39 1L21.39 5.14L16.39 10.03L11.38 5.14L11.38 1ZM11.38 7.29L16.39 12.17L21.39 7.29L21.39 11.43L16.39 16.32L11.38 11.43L11.38 7.29ZM11.38 32L16.39 27.12L21.39 32L21.39 27.86L16.39 22.97L11.38 27.86L11.38 32ZM11.38 25.71L16.39 20.83L21.39 25.71L21.39 21.57L16.39 16.68L11.38 21.57L11.38 25.71Z" />
		</g>
	</g>
</svg>