<svg xmlns="http://www.w3.org/2000/svg" viewBox="0 0 30 31" width="30" height="31">
	<style>
		tspan { white-space:pre }
		.shp0 { opacity: 0.502;fill: #f5c506 } 
	</style>
	<g id="footer">
		<g id="logo_copy">
			<path id="Shape 8 copy 4" class="shp0" d="M0.81 8.32L7.77 8.06L7.72 1.04L10.7 3.9L10.74 10.92L3.78 11.19L0.81 8.32ZM5.32 12.67L12.28 12.4L12.24 5.38L15.21 8.25L15.26 15.27L8.29 15.53L5.32 12.67ZM23.05 29.75L23.01 22.73L29.97 22.47L27 19.6L20.03 19.87L20.08 26.89L23.05 29.75ZM18.54 25.41L18.49 18.39L25.46 18.12L22.49 15.26L15.52 15.52L15.57 22.54L18.54 25.41ZM22.41 0.71L22.67 7.72L29.64 7.67L26.8 10.67L19.83 10.72L19.57 3.7L22.41 0.71ZM18.09 5.25L18.36 12.27L25.33 12.22L22.48 15.22L15.52 15.26L15.25 8.25L18.09 5.25ZM1.13 23.12L8.1 23.07L8.37 30.08L11.21 27.09L10.95 20.07L3.98 20.12L1.13 23.12ZM5.45 18.57L12.42 18.52L12.68 25.54L15.53 22.54L15.26 15.53L8.29 15.58L5.45 18.57Z" />
		</g>
	</g>
</svg>